# xmcd CD database file
#
# Track frame offsets:
#	150
#	17545
#	29529
#	50518
#	62452
#	72305
#	93493
#	103350
#	116154
#	136853
#	148949
#	157229
#
# Disc length: 2462 seconds
#
# Revision: 1
# Processed by: cddbd v1.5.2PL0 Copyright (c) Steve Scherf et al.
# Submitted via: CDex 1.70beta2
#
DISCID=b2099c0c
DTITLE=Lily Frost - Lily Swings, Lily Frost Sings Songs of Billie Holiday
DYEAR=2008
DGENRE=Jazz Vocals
TTITLE0=Lover Come Back To Me - Oscar Hammerstein II, Sigmund Romberg
TTITLE1=Love Me or Leave Me - Walter Donaldson, Gus Kahn
TTITLE2=Willow Weep For Me - Ann Ronell
TTITLE3=I've Got My Love To Keep Me Warm - Irving Berlin
TTITLE4=I Cried for You - Gus Arnheim, Arthur Freed, Abe Lyman
TTITLE5=Solitude - Eddie DeLange, Duke Ellington, Irving Mills
TTITLE6=Them There Eyes - Maceo Pinkard, Doris Tauber, William Tracey
TTITLE7=Now Baby or Never - Billie Holiday
TTITLE8=Crazy He Calls Me - Bob Russell, Carl Sigman
TTITLE9=Keeps On Raining - Max Kortlander
TTITLE10=All of Me - Gerald Marks, Seymour Simons
TTITLE11=Solitude Reprise - Eddie DeLange, Duke Ellington, Irving Mills
EXTD=YEAR: 2008
EXTT0=
EXTT1=
EXTT2=
EXTT3=
EXTT4=
EXTT5=
EXTT6=
EXTT7=
EXTT8=
EXTT9=
EXTT10=
EXTT11=
PLAYORDER=
